<svg xmlns="http://www.w3.org/2000/svg" xmlns:svg="http://www.w3.org/2000/svg" xmlns:xlink="http://www.w3.org/1999/xlink" id="svg8" width="718" height="359" version="1.1" viewBox="0 0 189.971 94.985"><defs id="defs2"><linearGradient id="linearGradient927"><stop style="stop-color:#009100;stop-opacity:1" id="stop923" offset="0"/><stop style="stop-color:#009100;stop-opacity:0" id="stop925" offset="1"/></linearGradient><radialGradient id="radialGradient929" cx="45.061" cy="253.903" r="36.089" fx="45.061" fy="253.903" gradientTransform="matrix(2.8445192,-2.7064466,3.2826852,3.4501551,-910.80039,-500.57046)" gradientUnits="userSpaceOnUse" xlink:href="#linearGradient927"/></defs><metadata id="metadata5"/><g id="layer1" transform="translate(0,-202.01459)"><path style="fill:none;fill-opacity:1;fill-rule:evenodd;stroke:url(#radialGradient929);stroke-width:7.52392244;stroke-miterlimit:4;stroke-dasharray:none;stroke-opacity:1" id="path815" d="m 50.858372,253.4785 c -2.223775,-1.97213 1.561262,-3.97058 3.277813,-3.69606 4.651746,0.74395 5.742361,6.5797 4.114306,10.25169 -2.912207,6.56833 -11.421987,7.82771 -17.225559,4.53255 -8.516976,-4.83578 -9.970095,-16.32825 -4.950799,-24.19943 6.689932,-10.49106 21.256984,-12.1365 31.173305,-5.36905 12.478678,8.51615 14.315263,26.19638 5.787292,38.14718 -10.328514,14.47402 -31.141774,16.50118 -45.121051,6.20554 -16.474095,-12.13306 -18.6915798,-36.0909 -6.623786,-52.09493 8.015267,-10.62965 21.117742,-16.56212 34.369524,-16.04093"/><flowRoot id="flowRoot817" transform="matrix(1.3328945,0,0,1.3328945,-1372.7142,-109.15994)" xml:space="preserve" style="font-style:normal;font-weight:400;font-size:40px;line-height:1.25;font-family:sans-serif;letter-spacing:0;word-spacing:0;fill:#000;fill-opacity:1;stroke:none"><flowRegion id="flowRegion819"><rect id="rect821" width="1654.286" height="788.571" x="1100" y="251.001"/></flowRegion><flowPara id="flowPara823">IVY</flowPara></flowRoot><ellipse style="opacity:1;fill:#009600;fill-opacity:1;fill-rule:nonzero;stroke:none;stroke-width:14.8231287;stroke-miterlimit:4;stroke-dasharray:none;stroke-dashoffset:0;stroke-opacity:1" id="path865" cx="51.686" cy="253.658" rx="4.512" ry="3.902"/></g></svg>